FFmpeg version SVN-r25716, Copyright (c) 2000-2010 the FFmpeg developers  built on Nov 10 2010 12:23:18 with gcc 4.1.2 20080704 (Red Hat 4.1.2-48)  configuration: --enable-libmp3lame --enable-shared --disable-mmx --arch=x86_64  libavutil     50.33. 0 / 50.33. 0  libavcore      0.12. 1 /  0.12. 1  libavcodec    52.94. 4 / 52.94. 4  libavformat   52.84. 0 / 52.84. 0  libavdevice   52. 2. 2 / 52. 2. 2  libavfilter    1.59. 0 /  1.59. 0  libswscale     0.12. 0 /  0.12. 0Input #0, avi, from '/RAID10/data/converted_video_files/47669.avi':  Duration: 00:00:07.50, start: 0.000000, bitrate: 188744 kb/s    Stream #0.0: Video: msvideo1, rgb555le, 1024x1024, 20 tbr, 20 tbn, 20 tbc[buffer @ 0x13b3a380] w:1024 h:1024 pixfmt:rgb555le[ffsink @ 0x13b39700] auto-inserting filter 'auto-inserted scaler 0' between the filter 'src' and the filter 'out'[scale @ 0x13b399f0] w:1024 h:1024 fmt:rgb555le -> w:1024 h:1024 fmt:yuv420p flags:0x4Output #0, flv, to '/RAID10/data/converted_video_files/47669.flv':  Metadata:    encoder         : Lavf52.84.0    Stream #0.0: Video: flv, yuv420p, 1024x1024, q=2-31, 600 kb/s, 1k tbn, 24 tbcStream mapping:  Stream #0.0 -> #0.0Press [q] to stop encodingframe=    7 fps=  0 q=8.0 size=     824kB time=0.33 bitrate=20210.4kbits/s    frame=   16 fps= 14 q=31.0 size=     848kB time=0.79 bitrate=8767.6kbits/s    frame=   26 fps= 15 q=31.0 size=     880kB time=1.29 bitrate=5582.9kbits/s    frame=   36 fps= 16 q=31.0 size=     912kB time=1.79 bitrate=4169.3kbits/s    frame=   47 fps= 17 q=31.0 size=     944kB time=2.33 bitrate=3316.0kbits/s    frame=   56 fps= 17 q=31.0 size=     976kB time=2.79 bitrate=2864.0kbits/s    frame=   65 fps= 17 q=31.0 size=     981kB time=3.25 bitrate=2473.3kbits/s    frame=   75 fps= 17 q=31.0 size=    1013kB time=3.75 bitrate=2212.8kbits/s    frame=   86 fps= 18 q=31.0 size=    1045kB time=4.29 bitrate=1995.8kbits/s    frame=   97 fps= 18 q=31.0 size=    1078kB time=4.83 bitrate=1827.2kbits/s    frame=  106 fps= 18 q=31.0 size=    1109kB time=5.29 bitrate=1717.3kbits/s    frame=  117 fps= 18 q=31.0 size=    1142kB time=5.83 bitrate=1603.6kbits/s    frame=  126 fps= 18 q=24.8 size=    1173kB time=6.29 bitrate=1527.3kbits/s    frame=  136 fps= 18 q=31.0 size=    1179kB time=6.79 bitrate=1421.6kbits/s    frame=  144 fps= 18 q=31.0 size=    1209kB time=7.21 bitrate=1374.0kbits/s    frame=  150 fps= 18 q=24.8 Lsize=    1238kB time=7.50 bitrate=1352.7kbits/s    video:1236kB audio:0kB global headers:0kB muxing overhead 0.206228%